<svg width="502" height="353" viewBox="0 0 502 353" fill="none" xmlns="http://www.w3.org/2000/svg">
<g clip-path="url(#clip0_0_531)">
<path d="M78.5911 353C121.996 353 157.182 350.273 157.182 346.908C157.182 343.544 121.996 340.816 78.5911 340.816C35.1864 340.816 0 343.544 0 346.908C0 350.273 35.1864 353 78.5911 353Z" fill="#19B885"/>
<path opacity="0.1" d="M63.0036 14.3825L62.9363 14.0092L56.5616 10.6288H55.5612L55.1785 9.89453H42.041L38.9944 10.6288H27.7742L24.7345 14.1803L24.7034 14.398C24.5066 15.6683 20.11 45.5375 31.7099 55.0411L36.5466 57.2913H39.6744L39.063 56.069L41.7821 57.2913H50.5856L50.7419 57.0563L55.966 55.0981L56.1007 54.9426C56.5719 54.3826 67.6746 40.8764 63.0036 14.3825Z" fill="#19B885"/>
<path d="M47.2195 44.0701H42.041V57.5504H47.2195V44.0701Z" fill="#E6E6E6"/>
<path d="M49.0319 74.9192H39.7106V334.155H49.0319V74.9192Z" fill="#364250"/>
<path d="M51.3623 70.5122H37.3803V79.3262H51.3623V70.5122Z" fill="#364250"/>
<path d="M32.202 54.4397L41.0053 63.7723L37.3804 70.5123L44.6301 72.0678L51.3625 70.5123L47.2195 63.254L55.5051 54.4397H32.202Z" fill="#364250"/>
<path d="M25.4698 14.5172L21.327 10.3694L24.4341 7.25854H63.7907L66.8978 10.8879L62.2372 14.5172C62.2372 14.5172 37.3803 13.4802 25.4698 14.5172Z" fill="#364250"/>
<path d="M63.0036 14.3823L62.9363 14.009L56.5616 10.6286L53.6512 9.0835L37.313 8.03101L28.1522 10.1878L27.7742 10.6286L24.7345 14.1801L24.7034 14.3978C24.5066 15.6681 20.11 45.5373 31.7099 55.0409L36.5466 57.2911L40.6169 59.1835L39.6744 57.2911L38.126 54.1958C36.5052 44.7492 32.9423 19.93 35.2158 14.7452L44.6095 11.7122L52.947 14.8127C53.5217 18.5405 57.2399 44.6767 50.7254 53.9936L50.5855 54.1958V57.1148L55.966 55.0979L56.1007 54.9424C56.5719 54.3825 67.6746 40.8762 63.0036 14.3823ZM55.0287 53.7862L52.1391 54.875V54.678C59.2855 44.0026 54.6145 15.3363 54.4125 14.1127L54.34 13.6668L46.1683 10.6285L44.651 10.0634L42.9006 10.6285L34.1386 13.4594L33.9884 13.7238C30.6587 19.7018 36.3705 53.1485 36.6139 54.5691L36.6347 54.6831L37.2509 55.9171L32.6161 53.7758C22.285 45.164 25.8271 17.5864 26.2051 14.8541L29.0015 11.5877L33.0718 10.6285L37.4477 9.59679L44.651 10.0634L53.2163 10.6182L53.2369 10.6285L61.5381 15.0252C65.6499 39.0564 56.2146 52.2515 55.0287 53.7862H55.0287Z" fill="#364250"/>
<path d="M44.6303 14.5172C52.3523 14.5172 58.6122 11.2674 58.6122 7.25861C58.6122 3.24979 52.3523 0 44.6303 0C36.9082 0 30.6483 3.24979 30.6483 7.25861C30.6483 11.2674 36.9082 14.5172 44.6303 14.5172Z" fill="#364250"/>
<path d="M37.3803 320.934L29.0947 347.376C29.0947 347.376 42.041 354.635 59.6479 347.376L51.3623 320.934H37.3803Z" fill="#364250"/>
<path d="M44.6302 45.6256C46.9182 45.6256 48.773 43.7686 48.773 41.4779C48.773 39.1871 46.9182 37.3301 44.6302 37.3301C42.3422 37.3301 40.4874 39.1871 40.4874 41.4779C40.4874 43.7686 42.3422 45.6256 44.6302 45.6256Z" fill="#19B885"/>
<path d="M197.46 194.544C199.649 202.643 207.144 207.659 207.144 207.659C207.144 207.659 211.091 199.544 208.903 191.445C206.715 183.346 199.22 178.331 199.22 178.331C199.22 178.331 195.272 186.446 197.46 194.544Z" fill="#19B885"/>
<path d="M200.676 192.804C206.681 198.656 207.414 207.653 207.414 207.653C207.414 207.653 198.412 207.161 192.407 201.308C186.403 195.456 185.669 186.46 185.669 186.46C185.669 186.46 194.671 186.952 200.676 192.804Z" fill="#E6E6E6"/>
<path d="M497.11 192.94L287.678 252.397L478.758 144.602C470.046 128.623 459.11 113.965 446.278 101.069L260.888 203.222L416.092 76.3376C393.832 61.5944 368.719 51.7105 342.391 47.3292L256.423 191.03L313.361 44.7501C312.513 44.739 311.665 44.7263 310.815 44.7263C205.226 44.7263 119.63 130.425 119.63 236.141C119.575 271.106 129.131 305.412 147.252 335.302H474.378C500.136 292.605 508.289 241.549 497.11 192.94Z" fill="#F2F2F2"/>
<path d="M480.673 317.429C480.673 301.099 472.397 287.862 462.188 287.862C455.772 287.862 450.12 293.093 446.806 301.033C445.686 300.567 444.486 300.326 443.273 300.323C440.183 300.323 437.326 301.909 434.996 304.592C432.009 294.692 425.673 287.862 418.34 287.862C411.484 287.862 405.504 293.837 402.313 302.705C400.54 301.207 398.306 300.366 395.987 300.323C388.152 300.323 381.801 310.482 381.801 323.014C381.768 327.192 382.526 331.338 384.035 335.232H476.945C479.284 330.28 480.673 324.114 480.673 317.429Z" fill="#19B885"/>
<path d="M293.767 118.691V118.691C293.767 99.7212 301.293 81.5282 314.691 68.1144C328.089 54.7006 346.26 47.1648 365.207 47.1648" stroke="#364250" stroke-width="2" stroke-miterlimit="10"/>
<path d="M319.76 128.053C314.038 149.231 294.437 162.348 294.437 162.348C294.437 162.348 284.115 141.127 289.837 119.948C295.559 98.7694 315.16 85.6528 315.16 85.6528C315.16 85.6528 325.483 106.874 319.76 128.053Z" fill="#19B885"/>
<path d="M267.702 128.053C273.425 149.231 293.025 162.348 293.025 162.348C293.025 162.348 303.348 141.127 297.625 119.948C291.903 98.7694 272.303 85.6528 272.303 85.6528C272.303 85.6528 261.98 106.874 267.702 128.053Z" fill="#19B885"/>
<path d="M276.111 123.501C291.813 138.805 293.731 162.331 293.731 162.331C293.731 162.331 270.191 161.044 254.488 145.74C238.786 130.436 236.868 106.91 236.868 106.91C236.868 106.91 260.409 108.197 276.111 123.501Z" fill="#364250"/>
<path d="M311.351 123.501C295.649 138.805 293.731 162.331 293.731 162.331C293.731 162.331 317.272 161.044 332.974 145.74C348.676 130.436 350.594 106.91 350.594 106.91C350.594 106.91 327.054 108.197 311.351 123.501Z" fill="#364250"/>
<path d="M353.636 62.4637C356.172 53.0772 364.859 47.2639 364.859 47.2639C364.859 47.2639 369.434 56.6691 366.898 66.0556C364.362 75.4422 355.675 81.2554 355.675 81.2554C355.675 81.2554 351.1 71.8502 353.636 62.4637Z" fill="#19B885"/>
<path d="M376.708 62.4637C374.172 53.0772 365.485 47.2639 365.485 47.2639C365.485 47.2639 360.91 56.6691 363.446 66.0556C365.982 75.4422 374.669 81.2554 374.669 81.2554C374.669 81.2554 379.244 71.8502 376.708 62.4637Z" fill="#19B885"/>
<path d="M372.981 64.4809C366.022 57.6981 365.172 47.2715 365.172 47.2715C365.172 47.2715 375.605 47.8418 382.564 54.6246C389.524 61.4073 390.374 71.834 390.374 71.834C390.374 71.834 379.941 71.2636 372.981 64.4809Z" fill="#364250"/>
<path d="M357.363 64.4809C364.322 57.6981 365.172 47.2715 365.172 47.2715C365.172 47.2715 354.739 47.8418 347.779 54.6246C340.82 61.4073 339.97 71.834 339.97 71.834C339.97 71.834 350.403 71.2636 357.363 64.4809Z" fill="#364250"/>
<path d="M441.519 255.648H432.995V208.371C432.991 207.079 432.477 205.841 431.564 204.927C430.651 204.013 429.414 203.498 428.124 203.495H413.511V161.884C413.507 160.592 412.993 159.353 412.08 158.44C411.167 157.526 409.931 157.011 408.64 157.007H181.329C180.038 157.011 178.801 157.526 177.889 158.44C176.976 159.353 176.461 160.592 176.458 161.884V203.495H161.845C160.554 203.498 159.317 204.013 158.405 204.927C157.492 205.841 156.978 207.079 156.974 208.371V255.648H148.45C147.159 255.652 145.922 256.167 145.01 257.08C144.097 257.994 143.583 259.232 143.579 260.525V330.426C143.583 331.718 144.097 332.956 145.01 333.87C145.922 334.784 147.159 335.299 148.45 335.302H441.519C442.81 335.299 444.046 334.784 444.959 333.87C445.872 332.956 446.386 331.718 446.39 330.426V260.525C446.386 259.232 445.872 257.994 444.959 257.08C444.046 256.167 442.81 255.652 441.519 255.648Z" fill="#364250"/>
<path d="M398.926 240.869C394.45 247.962 395.832 256.882 395.832 256.882C395.832 256.882 404.471 254.301 408.947 247.209C413.423 240.116 412.041 231.196 412.041 231.196C412.041 231.196 403.402 233.777 398.926 240.869Z" fill="#19B885"/>
<path d="M402.382 242.062C402.14 250.449 396.02 257.076 396.02 257.076C396.02 257.076 390.291 250.107 390.533 241.72C390.774 233.334 396.895 226.706 396.895 226.706C396.895 226.706 402.623 233.676 402.382 242.062Z" fill="#E6E6E6"/>
<path d="M432.995 255.648H156.974V260.525H432.995V255.648Z" fill="#E6E6E6"/>
<path d="M413.511 203.629H176.458V208.505H413.511V203.629Z" fill="#E6E6E6"/>
<path d="M365.207 89.8369C367.897 89.8369 370.078 87.6534 370.078 84.9601C370.078 82.2667 367.897 80.0833 365.207 80.0833C362.517 80.0833 360.336 82.2667 360.336 84.9601C360.336 87.6534 362.517 89.8369 365.207 89.8369Z" fill="#19B885"/>
<path d="M209.108 198.331L337.386 161.855L356.503 229.244L347.236 231.88L354.301 256.785L322.361 238.953L228.225 265.721L209.108 198.331Z" fill="#19B885"/>
<path d="M286.898 228.213L284.055 226.812C273.921 221.709 267.254 218.422 265.559 212.448C265.217 211.317 265.105 210.129 265.229 208.954C265.354 207.779 265.712 206.641 266.284 205.607C266.856 204.573 267.629 203.665 268.557 202.935C269.486 202.206 270.552 201.67 271.691 201.36C273.032 200.987 274.44 200.91 275.814 201.135C277.189 201.36 278.498 201.882 279.651 202.665C280.221 201.392 281.06 200.259 282.111 199.344C283.162 198.429 284.4 197.754 285.738 197.366C286.869 197.03 288.057 196.925 289.23 197.057C290.403 197.189 291.537 197.555 292.566 198.133C293.596 198.712 294.498 199.491 295.221 200.426C295.944 201.36 296.472 202.43 296.775 203.572C298.47 209.546 294.523 215.85 288.582 225.525L286.898 228.213Z" fill="white"/>
<path d="M59.2354 161.506C59.2354 161.506 55.9442 171.391 57.7727 173.588C59.6011 175.784 46.8021 166.997 46.8021 166.997L53.7502 158.943L59.2354 161.506Z" fill="#A0616A"/>
<path d="M51.73 161.489C60.7977 161.489 68.1486 154.13 68.1486 145.051C68.1486 135.972 60.7977 128.613 51.73 128.613C42.6622 128.613 35.3114 135.972 35.3114 145.051C35.3114 154.13 42.6622 161.489 51.73 161.489Z" fill="#33393F"/>
<path d="M115.551 272.807L107.14 279.397L102.386 271.709L110.797 265.851L115.551 272.807Z" fill="#A0616A"/>
<path d="M103.666 322.417L105.86 333.035L112.077 341.455C112.077 341.455 128.899 346.581 117.562 349.144C106.226 351.707 103.666 347.313 103.666 347.313L95.6211 340.357V349.876H90.5015L89.4045 336.33C89.4045 336.33 88.6731 332.302 91.9643 327.909L92.6957 321.319L103.666 322.417Z" fill="#33393F"/>
<path d="M61.2466 190.978L64.1721 207.82C64.1721 207.82 95.2554 204.525 97.4495 210.749C99.6436 216.973 100.375 218.804 100.375 218.804L94.1583 221.001L91.2329 215.509C90.3418 215.193 89.3957 215.062 88.4525 215.125C87.5093 215.188 86.5889 215.443 85.7476 215.875C82.8221 217.339 57.2241 221.001 55.3957 216.241C53.5673 211.481 48.4476 193.907 48.4476 193.907L56.127 187.683L61.2466 190.978Z" fill="#A0616A"/>
<path opacity="0.1" d="M61.2466 190.978L64.1721 207.82C64.1721 207.82 95.2554 204.525 97.4495 210.749C99.6436 216.973 100.375 218.804 100.375 218.804L94.1583 221.001L91.2329 215.509C90.3418 215.193 89.3957 215.062 88.4525 215.125C87.5093 215.188 86.5889 215.443 85.7476 215.875C82.8221 217.339 57.2241 221.001 55.3957 216.241C53.5673 211.481 48.4476 193.907 48.4476 193.907L56.127 187.683L61.2466 190.978Z" fill="black"/>
<path d="M78.4339 239.673L80.9937 248.46L87.5761 282.143C87.5761 282.143 88.3074 307.04 89.4045 309.969C90.5016 312.898 90.5016 313.264 89.4045 314.362C88.3074 315.461 86.1133 319.122 89.4045 321.319C92.6957 323.515 104.398 326.078 104.763 323.515C105.129 320.953 105.129 316.925 104.763 315.095C104.398 313.264 105.86 284.706 105.86 284.706L101.472 241.138L86.479 234.181L78.4339 239.673Z" fill="#33393F"/>
<path opacity="0.1" d="M78.4339 239.673L80.9937 248.46L87.5761 282.143C87.5761 282.143 88.3074 307.04 89.4045 309.969C90.5016 312.898 90.5016 313.264 89.4045 314.362C88.3074 315.461 86.1133 319.122 89.4045 321.319C92.6957 323.515 104.398 326.078 104.763 323.515C105.129 320.953 105.129 316.925 104.763 315.095C104.398 313.264 105.86 284.706 105.86 284.706L101.472 241.138L86.479 234.181L78.4339 239.673Z" fill="black"/>
<path d="M94.1584 205.257L102.203 220.635C102.203 220.635 148.28 241.138 144.257 249.558C140.235 257.979 117.928 273.723 117.928 273.723C117.928 273.723 116.831 279.947 113.54 278.116C110.249 276.285 102.203 266.766 102.935 265.668C103.666 264.569 106.226 262.007 107.323 262.373C108.42 262.739 121.219 252.853 121.219 252.853L99.278 247.362C99.278 247.362 72.9486 246.629 71.4858 234.181C70.0231 221.733 71.4858 219.536 71.4858 219.536L69.6574 215.509L84.6505 206.356L94.1584 205.257Z" fill="#33393F"/>
<path d="M105.495 266.034L97.8152 272.99C97.8152 272.99 91.2329 270.061 87.2103 271.159C83.1878 272.258 76.2398 272.99 76.2398 272.99L77.3368 279.214L86.6668 277.491L79.1652 288.001C79.1652 288.001 79.1652 304.477 83.9191 304.477C88.6731 304.477 87.2104 294.591 87.2104 294.591L101.838 283.242C101.838 283.242 109.151 280.313 109.883 280.313C110.614 280.313 105.495 266.034 105.495 266.034Z" fill="#33393F"/>
<path d="M57.7726 164.434C64.6394 164.434 70.206 158.861 70.206 151.986C70.206 145.111 64.6394 139.538 57.7726 139.538C50.9059 139.538 45.3393 145.111 45.3393 151.986C45.3393 158.861 50.9059 164.434 57.7726 164.434Z" fill="#A0616A"/>
<path d="M45.5222 161.688C45.5222 161.688 51.3731 160.224 53.2016 161.688C55.03 163.153 55.3957 166.448 57.9555 166.814C60.5153 167.18 62.7094 167.18 63.075 167.546C63.4407 167.913 71.8515 178.164 71.8515 178.164C71.8515 178.164 76.9711 181.093 78.0681 185.12C79.1652 189.148 90.1358 202.694 91.5985 204.159C93.0613 205.623 82.0907 212.946 78.4338 215.509C74.777 218.072 64.1721 219.17 60.8809 213.312C57.5898 207.454 39.6712 169.377 45.5222 161.688Z" fill="#575A89"/>
<path d="M59.4183 185.487L62.3437 202.328C62.3437 202.328 93.427 199.033 95.6211 205.257C97.8152 211.481 98.5466 213.312 98.5466 213.312L92.33 215.509L89.4045 210.017C88.5134 209.701 87.5673 209.57 86.6241 209.633C85.6809 209.696 84.7605 209.951 83.9192 210.383C80.9937 211.847 55.3957 215.509 53.5673 210.749C51.7389 205.99 46.6193 188.416 46.6193 188.416L54.2987 182.191L59.4183 185.487Z" fill="#A0616A"/>
<path d="M52.4301 163.229C52.4301 163.229 61.2467 181.825 60.5153 186.951C59.784 192.077 57.2241 188.415 57.2241 188.415C57.2241 188.415 53.933 183.29 52.4702 186.219C51.0075 189.148 49.179 193.175 47.7163 192.809C46.2536 192.443 38.2085 165.35 42.5968 162.787C46.985 160.224 52.4301 163.229 52.4301 163.229Z" fill="#575A89"/>
<path d="M33.9432 139.846C43.0109 139.846 50.3618 132.486 50.3618 123.407C50.3618 114.329 43.0109 106.969 33.9432 106.969C24.8754 106.969 17.5246 114.329 17.5246 123.407C17.5246 132.486 24.8754 139.846 33.9432 139.846Z" fill="#33393F"/>
<path d="M19.7813 137.019C21.9063 138.557 24.3683 139.563 26.9613 139.953C29.5543 140.342 32.2028 140.105 34.6852 139.26C37.1677 138.415 39.4119 136.987 41.23 135.095C43.0482 133.204 44.3876 130.904 45.1359 128.388C44.8527 130.642 44.1057 132.814 42.942 134.765C41.7784 136.716 40.2233 138.404 38.375 139.723C36.5267 141.042 34.4253 141.963 32.2036 142.428C29.9818 142.893 27.688 142.892 25.4668 142.424C23.2456 141.957 21.1453 141.033 19.2986 139.712C17.4518 138.391 15.8988 136.701 14.7374 134.748C13.576 132.796 12.8316 130.623 12.5511 128.368C12.2706 126.113 12.4601 123.825 13.1077 121.646C12.7399 124.573 13.1654 127.544 14.3396 130.249C15.5138 132.954 17.3934 135.292 19.7813 137.019Z" fill="#33393F"/>
<path d="M47.3517 159.846C54.0014 159.846 59.392 154.448 59.392 147.791C59.392 141.133 54.0014 135.736 47.3517 135.736C40.702 135.736 35.3114 141.133 35.3114 147.791C35.3114 154.448 40.702 159.846 47.3517 159.846Z" fill="#33393F"/>
<path d="M57.4765 151.626C63.3705 151.626 68.1485 147.885 68.1485 143.27C68.1485 138.655 63.3705 134.914 57.4765 134.914C51.5824 134.914 46.8044 138.655 46.8044 143.27C46.8044 147.885 51.5824 151.626 57.4765 151.626Z" fill="#33393F"/>
<path d="M57.9555 157.478C59.2682 157.478 60.3324 155.593 60.3324 153.268C60.3324 150.942 59.2682 149.057 57.9555 149.057C56.6427 149.057 55.5785 150.942 55.5785 153.268C55.5785 155.593 56.6427 157.478 57.9555 157.478Z" fill="#A0616A"/>
<path d="M90.5836 215.349C90.5836 215.349 97.0572 211.63 98.259 212.563C99.4608 213.495 99.9947 216.413 99.9947 216.413L92.5127 219.353L90.3186 215.326L90.5836 215.349Z" fill="#33393F"/>
</g>
<defs>
<clipPath id="clip0_0_531">
<rect width="502.001" height="353" fill="white"/>
</clipPath>
</defs>
</svg>
