<svg xmlns="http://www.w3.org/2000/svg" width="34" height="34" viewBox="0 0 34 34" fill="none">
  <path d="M23.3722 13.6198C19.8532 14.7886 14.1468 14.7886 10.6264 13.6198" stroke="white" stroke-width="2" stroke-linecap="round" stroke-linejoin="round"/>
  <path d="M15.0167 19.6916H18.9834" stroke="white" stroke-width="2" stroke-linecap="round" stroke-linejoin="round"/>
  <path d="M18.8884 14.4302V14.4968C18.8884 19.2908 18.8884 21.2075 19.8333 24.0833" stroke="white" stroke-width="2" stroke-linecap="round" stroke-linejoin="round"/>
  <path d="M15.1116 14.4302V14.4968C15.1116 19.2908 15.1116 21.2075 14.1667 24.0833" stroke="white" stroke-width="2" stroke-linecap="round" stroke-linejoin="round"/>
  <path d="M26.0156 7.98439C30.9948 12.9636 30.9948 21.0364 26.0156 26.0156C21.0365 30.9948 12.9636 30.9948 7.98445 26.0156C3.00526 21.0364 3.00526 12.9635 7.98445 7.98439C12.9636 3.0052 21.0365 3.0052 26.0156 7.98439" stroke="white" stroke-width="2" stroke-linecap="round" stroke-linejoin="round"/>
  <path d="M17.4758 9.79501C17.7386 10.0578 17.7386 10.4839 17.4758 10.7467C17.2131 11.0094 16.787 11.0094 16.5242 10.7467C16.2614 10.4839 16.2614 10.0578 16.5242 9.79501C16.787 9.53222 17.2131 9.53222 17.4758 9.79501" stroke="white" stroke-width="2" stroke-linecap="round" stroke-linejoin="round"/>
</svg>