<svg xmlns="http://www.w3.org/2000/svg" width="32" height="32" viewBox="0 0 32 32" fill="none">
  <path d="M16 28.0051C9.36982 28.0051 3.995 22.6303 3.995 16.0001C3.995 9.36994 9.36982 3.99512 16 3.99512C22.6302 3.99512 28.005 9.36994 28.005 16.0001" stroke="white" stroke-width="1.5" stroke-linecap="round" stroke-linejoin="round"/>
  <path d="M4.67932 11.9985H27.1794" stroke="white" stroke-width="1.5" stroke-linecap="round" stroke-linejoin="round"/>
  <path d="M4.6806 20.0017H16" stroke="white" stroke-width="1.5" stroke-linecap="round" stroke-linejoin="round"/>
  <path d="M21.3356 16C21.3456 12.2735 20.3468 8.61369 18.445 5.40895C17.9418 4.53441 17.0096 3.99536 16.0007 3.99536C14.9917 3.99536 14.0595 4.53441 13.5563 5.40895C9.70137 11.944 9.70137 20.0574 13.5563 26.5924C14.0617 27.4651 14.9928 28.0036 16.0013 28.0064" stroke="white" stroke-width="1.5" stroke-linecap="round" stroke-linejoin="round"/>
  <ellipse cx="24.0033" cy="24.0035" rx="5.33555" ry="5.33556" stroke="white" stroke-width="1.5" stroke-linecap="round" stroke-linejoin="round"/>
  <path d="M25.6627 23.175L23.5872 25.2506L22.3427 24.0047" stroke="white" stroke-width="1.5" stroke-linecap="round" stroke-linejoin="round"/>
</svg>