<svg xmlns="http://www.w3.org/2000/svg" width="274" height="61" viewBox="0 0 274 61" fill="none">
  <path d="M273.247 30.3322L254.086 60.3621H5.03592C4.3746 60.3621 3.71975 60.2319 3.10876 59.9788C2.49778 59.7257 1.94262 59.3548 1.47499 58.8871C1.00736 58.4195 0.636418 57.8644 0.38334 57.2534C0.130262 56.6424 8.54052e-06 55.9876 8.54052e-06 55.3262V5.36598C-0.00121081 4.70388 0.128148 4.04802 0.38068 3.43597C0.633212 2.82391 1.00396 2.26766 1.47171 1.79905C1.93945 1.33044 2.49502 0.958668 3.10661 0.70501C3.7182 0.451352 4.37382 0.3208 5.03592 0.320801H254.086L273.247 30.3322Z" fill="#19B885"/>
</svg>